<?xml version="1.0" encoding="UTF-8"?>
<!DOCTYPE svg PUBLIC "-//W3C//DTD SVG 1.1//EN" "http://www.w3.org/Graphics/SVG/1.1/DTD/svg11.dtd">
<!-- Creator: CorelDRAW -->
<svg xmlns="http://www.w3.org/2000/svg" xml:space="preserve" width="8.5in" height="11in" version="1.1" style="shape-rendering:geometricPrecision; text-rendering:geometricPrecision; image-rendering:optimizeQuality; fill-rule:evenodd; clip-rule:evenodd"
viewBox="0 0 8500 11000"
 xmlns:xlink="http://www.w3.org/1999/xlink">
 <defs>
  <style type="text/css">
   <![CDATA[
    .fil2 {fill:#FEFEFE}
    .fil3 {fill:#CBCBCD}
    .fil0 {fill:#C3C3C5}
    .fil4 {fill:#4362AC}
    .fil1 {fill:#354D97}
   ]]>
  </style>
 </defs>
 <g id="Layer_x0020_1">
  <metadata id="CorelCorpID_0Corel-Layer"/>
  <g id="bca-mobile-app.cdr">
   <path class="fil0" d="M6416 8036l-3783 0c-578,0 -1047,-469 -1047,-1047l0 -3782c0,-579 469,-1048 1047,-1048l3783 0c578,0 1047,469 1047,1048l0 3782c0,578 -469,1047 -1047,1047z"/>
   <path class="fil1" d="M6252 7782l-3455 0c-528,0 -957,-428 -957,-957l0 -3455c0,-528 429,-957 957,-957l3455 0c529,0 957,429 957,957l0 3455c0,529 -428,957 -957,957z"/>
   <path class="fil2" d="M6198 4037l5 483 -212 0 207 -483zm-482 -72l-648 1264 633 0 127 -304 389 0 2 304 567 0 -77 -1773 -854 0 -286 509 147 0z"/>
   <path class="fil2" d="M2991 4490l200 0c77,0 138,64 113,159 -26,94 -119,132 -195,132l-194 0 76 -291zm140 -564l162 1c46,0 143,3 115,125 -26,112 -129,126 -187,126l-150 0 60 -252zm-3 1303c381,0 662,-271 662,-562 0,-120 -16,-290 -205,-359 184,-93 351,-272 351,-474 0,-219 -170,-371 -451,-373 -229,-1 -748,0 -748,0l-274 530 133 1 -321 1237 853 0z"/>
   <path class="fil2" d="M4674 5292c108,-3 232,-25 288,-43l283 -580c-82,63 -253,152 -424,148 -297,-6 -408,-192 -406,-355 2,-231 191,-470 505,-476 159,-2 297,70 399,153l278 -496 -378 -202 -51 66c-41,-23 -114,-34 -159,-34 -735,0 -1164,602 -1165,1097 0,374 229,740 830,722z"/>
   <path class="fil2" d="M3306 5963c-106,0 -204,51 -291,155 -6,-49 -25,-87 -55,-114 -30,-27 -69,-41 -117,-41 -104,0 -196,47 -275,142l22 -125 -121 0c-11,55 -28,125 -51,210l-148 555 137 0 122 -457c15,-55 45,-103 92,-144 47,-41 94,-61 140,-61 48,0 81,19 99,56 17,38 17,89 0,154l-121 452 137 0 125 -470c16,-56 45,-102 90,-138 44,-36 89,-54 133,-54 52,0 86,20 103,61 17,40 16,98 -5,174l-114 427 137 0 119 -444c29,-111 29,-195 -3,-252 -31,-57 -83,-86 -155,-86z"/>
   <path class="fil2" d="M4200 6359c-23,87 -64,157 -123,212 -58,55 -120,82 -186,82 -64,0 -110,-27 -138,-82 -28,-54 -31,-123 -8,-207 22,-84 61,-153 117,-209 56,-55 119,-83 189,-83 70,0 118,28 143,84 25,56 27,124 6,203zm-113 -396c-109,0 -209,37 -300,110 -91,73 -153,172 -187,296 -31,116 -22,211 28,284 50,72 128,109 234,109 68,0 136,-17 203,-50 68,-33 126,-80 175,-142 49,-62 85,-133 107,-216 31,-115 22,-209 -26,-282 -48,-73 -126,-109 -234,-109z"/>
   <path class="fil2" d="M5084 6358c-23,88 -62,157 -117,209 -55,52 -117,78 -187,78 -59,0 -104,-21 -133,-64 -28,-43 -35,-92 -20,-149l33 -125c17,-60 51,-114 105,-160 53,-46 110,-69 170,-69 68,0 116,26 142,79 27,52 29,119 7,201zm-71 -395c-119,0 -217,47 -295,142l129 -485 -142 0 -248 924c-23,85 -43,152 -60,201l122 0 40 -127c32,96 105,144 219,144 94,0 185,-37 270,-112 86,-74 146,-174 179,-299 31,-114 26,-207 -14,-280 -40,-72 -107,-108 -200,-108z"/>
   <polygon class="fil2" points="5283,6745 5423,6745 5628,5980 5488,5980 "/>
   <path class="fil2" d="M5573 5683c-21,18 -36,39 -43,65 -7,26 -4,49 7,66 12,18 31,27 57,27 27,0 51,-9 73,-27 21,-17 35,-40 42,-66 7,-26 5,-47 -7,-65 -12,-18 -31,-27 -57,-27 -26,0 -50,9 -72,27z"/>
   <polygon class="fil2" points="5939,5620 5638,6745 5778,6745 6079,5620 "/>
   <path class="fil2" d="M6592 6287l-395 0c26,-66 63,-119 111,-160 47,-40 100,-60 156,-60 60,0 101,20 122,60 22,41 24,94 6,160zm-89 -324c-109,0 -206,39 -292,118 -85,79 -144,177 -175,294 -31,117 -23,211 25,281 49,71 129,106 243,106 97,0 187,-17 267,-51l4 -102c-68,26 -142,39 -223,39 -74,0 -129,-22 -163,-66 -35,-44 -43,-107 -22,-190l527 0c7,-15 15,-37 23,-66 27,-102 23,-187 -12,-258 -34,-70 -102,-105 -202,-105z"/>
   <path class="fil2" d="M7463 4561l0 -1354c0,-553 -429,-1006 -972,-1045 543,39 972,492 972,1045l0 1354zm-5877 -1354l0 0c0,-289 117,-551 306,-740 -189,189 -306,451 -306,740zm307 -741c0,0 0,0 1,0 -1,0 -1,0 -1,0z"/>
   <path class="fil3" d="M1840 4724c-86,-27 -171,-56 -254,-86l0 -1431c0,-289 117,-551 306,-740 1,0 1,-1 1,-1 0,0 0,0 1,0 189,-190 451,-307 739,-307l3783 0c25,0 50,1 75,3 543,39 972,492 972,1045l0 1354c-83,33 -168,65 -254,95l0 -1286c0,-528 -428,-957 -957,-957l-3455 0c-528,0 -957,429 -957,957l0 1354z"/>
   <path class="fil4" d="M4046 5090c-152,-6 -302,-15 -450,-28 122,-105 194,-247 194,-395 0,-120 -16,-290 -205,-359 184,-93 351,-272 351,-474 0,-219 -170,-371 -451,-373 -76,0 -185,-1 -295,-1 -222,0 -453,1 -453,1l-274 530 133 1 -227 876c-182,-43 -359,-91 -529,-144l0 -1354c0,-528 429,-957 957,-957l3455 0c529,0 957,429 957,957l0 1286c-143,50 -290,96 -442,138l-58 -1338 -854 0 -286 509 147 0 -567 1105c-34,3 -69,5 -103,7l199 -408c-80,62 -246,148 -413,148 -4,0 -7,0 -11,0 -297,-6 -408,-192 -406,-355 2,-231 191,-470 505,-476 3,0 6,0 9,0 155,0 290,72 390,153l278 -496 -378 -202 -51 66c-41,-23 -114,-34 -159,-34 -735,0 -1164,602 -1165,1097 0,192 61,383 202,520zm1752 -93l30 -72 386 0c-136,27 -275,51 -416,72zm-2689 -216l-194 0 76 -291 200 0c77,0 138,64 113,159 -26,94 -119,132 -195,132zm3094 -261l-212 0 207 -483 5 483zm-2982 -342l-150 0 60 -252 162 1c46,0 143,3 115,125 -26,112 -129,126 -187,126z"/>
   <path class="fil2" d="M5149 5070l567 -1105 -147 0 286 -509 854 0 58 1338c-179,49 -363,93 -553,131l-386 0 -30 72c-211,32 -427,56 -649,73zm1049 -1033l-207 483 212 0 -5 -483z"/>
   <path class="fil2" d="M3596 5062c-430,-37 -841,-103 -1227,-194l227 -876 -133 -1 274 -530c0,0 231,-1 453,-1 110,0 219,1 295,1 281,2 451,154 451,373 0,202 -167,381 -351,474 189,69 205,239 205,359 0,148 -72,290 -194,395zm-605 -572l-76 291 194 0c76,0 169,-38 195,-132 25,-95 -36,-159 -113,-159l-200 0zm140 -564l-60 252 150 0c58,0 161,-14 187,-126 28,-122 -69,-125 -115,-125l-162 -1z"/>
   <path class="fil2" d="M4422 5097c-126,0 -252,-2 -376,-7 -141,-137 -202,-328 -202,-520 1,-495 430,-1097 1165,-1097 45,0 118,11 159,34l51 -66 378 202 -278 496c-100,-81 -235,-153 -390,-153 -3,0 -6,0 -9,0 -314,6 -503,245 -505,476 -2,163 109,349 406,355 4,0 7,0 11,0 167,0 333,-86 413,-148l-199 408c-204,13 -412,20 -624,20z"/>
  </g>
 </g>
</svg>
